<?xml version="1.0" encoding="UTF-8"?>
<svg width="600px" height="600px" viewBox="0 0 600 600" version="1.1" xmlns="http://www.w3.org/2000/svg" xmlns:xlink="http://www.w3.org/1999/xlink">
    <!-- Generator: Sketch 50.2 (55047) - http://www.bohemiancoding.com/sketch -->
    <title>7cards1</title>
    <desc>Created with Sketch.</desc>
    <defs></defs>
    <g id="7cards1" stroke="none" stroke-width="1" fill="none" fill-rule="evenodd">
        <rect id="Rectangle" x="0" y="0" width="600" height="600"></rect>
        <text id="7" font-family="Helvetica-Bold, Helvetica" font-size="180" font-weight="bold" fill="#C0C0C0">
            <tspan x="66.9462891" y="588">7</tspan>
        </text>
        <g id="Card" transform="translate(213.330678, 109.994996) rotate(-45.000000) translate(-213.330678, -109.994996) translate(180.063473, 59.830678)" fill="#353535" stroke="#F7F7F7" stroke-width="5">
            <rect id="CARD" x="5.5" y="3.5" width="57" height="93" rx="8"></rect>
        </g>
        <g id="Card" transform="translate(212.379098, 310.043416) rotate(45.000000) translate(-212.379098, -310.043416) translate(178.879098, 260.043416)" fill="#353535" stroke="#F7F7F7" stroke-width="5">
            <rect id="CARD" x="5.5" y="3.5" width="57" height="93" rx="8"></rect>
        </g>
        <g id="Card" transform="translate(265.335682, 160.000000)" fill="#353535" stroke="#F7F7F7" stroke-width="5">
            <rect id="CARD" x="5.5" y="3.5" width="57" height="93" rx="8"></rect>
        </g>
        <g id="Card" transform="translate(386.330678, 109.994996) rotate(45.000000) translate(-386.330678, -109.994996) translate(353.063473, 59.830678)" fill="#353535" stroke="#F7F7F7" stroke-width="5">
            <rect id="CARD" x="5.5" y="3.5" width="57" height="93" rx="8"></rect>
        </g>
        <g id="Card" transform="translate(387.379098, 310.043416) rotate(-45.000000) translate(-387.379098, -310.043416) translate(353.879098, 260.043416)" fill="#353535" stroke="#F7F7F7" stroke-width="5">
            <rect id="CARD" x="5.5" y="3.5" width="57" height="93" rx="8"></rect>
        </g>
        <g id="Card" transform="translate(418.500000, 207.267205) rotate(90.000000) translate(-418.500000, -207.267205) translate(385.232795, 157.102887)" fill="#353535" stroke="#F7F7F7" stroke-width="5">
            <rect id="CARD" x="5.5" y="3.5" width="57" height="93" rx="8"></rect>
        </g>
        <g id="Card" transform="translate(181.500000, 207.267205) rotate(90.000000) translate(-181.500000, -207.267205) translate(148.232795, 157.102887)" fill="#353535" stroke="#F7F7F7" stroke-width="5">
            <rect id="CARD" x="5.5" y="3.5" width="57" height="93" rx="8"></rect>
        </g>
    </g>
</svg>