<?xml version="1.0" encoding="UTF-8"?>
<svg width="600px" height="600px" viewBox="0 0 600 600" version="1.1" xmlns="http://www.w3.org/2000/svg" xmlns:xlink="http://www.w3.org/1999/xlink">
    <!-- Generator: Sketch 50.2 (55047) - http://www.bohemiancoding.com/sketch -->
    <title>8cards2</title>
    <desc>Created with Sketch.</desc>
    <defs></defs>
    <g id="8cards2" stroke="none" stroke-width="1" fill="none" fill-rule="evenodd">
        <rect id="Rectangle" x="0" y="0" width="600" height="600"></rect>
        <text id="8" font-family="Helvetica-Bold, Helvetica" font-size="180" font-weight="bold" fill="#C0C0C0">
            <tspan x="66.9462891" y="588">8</tspan>
        </text>
        <g id="Card" transform="translate(180.000000, 49.000000)" fill="#353535" stroke="#F7F7F7" stroke-width="5">
            <rect id="CARD" x="5.5" y="3.5" width="57" height="89" rx="8"></rect>
        </g>
        <g id="Card" transform="translate(180.000000, 260.000000)" fill="#353535" stroke="#F7F7F7" stroke-width="5">
            <rect id="CARD" x="5.5" y="3.5" width="57" height="89" rx="8"></rect>
        </g>
        <g id="Card" transform="translate(267.000000, 49.000000)" fill="#353535" stroke="#F7F7F7" stroke-width="5">
            <rect id="CARD" x="5.5" y="3.5" width="57" height="89" rx="8"></rect>
        </g>
        <g id="Card" transform="translate(353.000000, 49.000000)" fill="#353535" stroke="#F7F7F7" stroke-width="5">
            <rect id="CARD" x="5.5" y="3.5" width="57" height="89" rx="8"></rect>
        </g>
        <g id="Card" transform="translate(353.000000, 260.000000)" fill="#353535" stroke="#F7F7F7" stroke-width="5">
            <rect id="CARD" x="5.5" y="3.5" width="57" height="89" rx="8"></rect>
        </g>
        <g id="Card" transform="translate(267.000000, 155.000000)" fill="#353535" stroke="#F7F7F7" stroke-width="5">
            <rect id="CARD" x="5.5" y="3.5" width="57" height="89" rx="8"></rect>
        </g>
        <g id="Card" transform="translate(267.000000, 260.000000)" fill="#353535" stroke="#F7F7F7" stroke-width="5">
            <rect id="CARD" x="5.5" y="3.5" width="57" height="89" rx="8"></rect>
        </g>
        <g id="Card" transform="translate(301.000000, 307.500000) rotate(90.000000) translate(-301.000000, -307.500000) translate(267.500000, 259.500000)" fill="#353535" stroke="#F7F7F7" stroke-width="5">
            <rect id="CARD" x="5.5" y="3.5" width="57" height="89" rx="8"></rect>
        </g>
    </g>
</svg>