<?xml version="1.0" encoding="UTF-8"?>
<svg width="600px" height="600px" viewBox="0 0 600 600" version="1.1" xmlns="http://www.w3.org/2000/svg" xmlns:xlink="http://www.w3.org/1999/xlink">
    <!-- Generator: Sketch 50.2 (55047) - http://www.bohemiancoding.com/sketch -->
    <title>9cards1</title>
    <desc>Created with Sketch.</desc>
    <defs></defs>
    <g id="9cards1" stroke="none" stroke-width="1" fill="none" fill-rule="evenodd">
        <rect id="Rectangle" x="0" y="0" width="600" height="600"></rect>
        <text id="9" font-family="Helvetica-Bold, Helvetica" font-size="180" font-weight="bold" fill="#C0C0C0">
            <tspan x="66.9462891" y="588">9</tspan>
        </text>
        <g id="Card" transform="translate(270.000000, 22.000000)" fill="#353535" stroke="#F7F7F7" stroke-width="5">
            <rect id="CARD" x="5.5" y="3.5" width="50" height="70" rx="8"></rect>
        </g>
        <g id="Card" transform="translate(232.230762, 76.341978) rotate(-30.000000) translate(-232.230762, -76.341978) translate(202.230762, 37.841978)" fill="#353535" stroke="#F7F7F7" stroke-width="5">
            <rect id="CARD" x="5.5" y="3.5" width="50" height="70" rx="8"></rect>
        </g>
        <g id="Card" transform="translate(368.230762, 76.341978) rotate(30.000000) translate(-368.230762, -76.341978) translate(338.230762, 37.841978)" fill="#353535" stroke="#F7F7F7" stroke-width="5">
            <rect id="CARD" x="5.5" y="3.5" width="50" height="70" rx="8"></rect>
        </g>
        <g id="Card" transform="translate(270.000000, 121.000000)" fill="#353535" stroke="#F7F7F7" stroke-width="5">
            <rect id="CARD" x="5.5" y="3.5" width="50" height="70" rx="8"></rect>
        </g>
        <g id="Card" transform="translate(300.000000, 159.500000) rotate(90.000000) translate(-300.000000, -159.500000) translate(270.000000, 121.000000)" fill="#353535" stroke="#F7F7F7" stroke-width="5">
            <rect id="CARD" x="5.5" y="3.5" width="50" height="70" rx="8"></rect>
        </g>
        <g id="Card" transform="translate(270.000000, 207.000000)" fill="#353535" stroke="#F7F7F7" stroke-width="5">
            <rect id="CARD" x="5.5" y="3.5" width="50" height="70" rx="8"></rect>
        </g>
        <g id="Card" transform="translate(187.000000, 151.000000)" fill="#353535" stroke="#F7F7F7" stroke-width="5">
            <rect id="CARD" x="5.5" y="3.5" width="50" height="70" rx="8"></rect>
        </g>
        <g id="Card" transform="translate(353.000000, 151.000000)" fill="#353535" stroke="#F7F7F7" stroke-width="5">
            <rect id="CARD" x="5.5" y="3.5" width="50" height="70" rx="8"></rect>
        </g>
        <g id="Card" transform="translate(270.000000, 292.000000)" fill="#353535" stroke="#F7F7F7" stroke-width="5">
            <rect id="CARD" x="5.5" y="3.5" width="50" height="70" rx="8"></rect>
        </g>
    </g>
</svg>