<?xml version="1.0" encoding="UTF-8"?>
<svg width="600px" height="600px" viewBox="0 0 600 600" version="1.1" xmlns="http://www.w3.org/2000/svg" xmlns:xlink="http://www.w3.org/1999/xlink">
    <!-- Generator: Sketch 50.2 (55047) - http://www.bohemiancoding.com/sketch -->
    <title>9cards2</title>
    <desc>Created with Sketch.</desc>
    <defs></defs>
    <g id="9cards2" stroke="none" stroke-width="1" fill="none" fill-rule="evenodd">
        <rect id="Rectangle" x="0" y="0" width="600" height="600"></rect>
        <text id="9" font-family="Helvetica-Bold, Helvetica" font-size="180" font-weight="bold" fill="#C0C0C0">
            <tspan x="66.9462891" y="588">9</tspan>
        </text>
        <g id="Card" transform="translate(184.000000, 154.000000)" fill="#353535" stroke="#F7F7F7" stroke-width="5">
            <rect id="CARD" x="5.5" y="3.5" width="60" height="89" rx="8"></rect>
        </g>
        <g id="Card" transform="translate(109.000000, 154.000000)" fill="#353535" stroke="#F7F7F7" stroke-width="5">
            <rect id="CARD" x="5.5" y="3.5" width="60" height="89" rx="8"></rect>
        </g>
        <g id="Card" transform="translate(259.000000, 154.000000)" fill="#353535" stroke="#F7F7F7" stroke-width="5">
            <rect id="CARD" x="5.5" y="3.5" width="60" height="89" rx="8"></rect>
        </g>
        <g id="Card" transform="translate(262.689863, 307.689863) rotate(45.000000) translate(-262.689863, -307.689863) translate(227.689863, 259.689863)" fill="#353535" stroke="#F7F7F7" stroke-width="5">
            <rect id="CARD" x="5.5" y="3.5" width="60" height="89" rx="8"></rect>
        </g>
        <g id="Card" transform="translate(257.689863, 95.689863) rotate(-45.000000) translate(-257.689863, -95.689863) translate(222.689863, 47.689863)" fill="#353535" stroke="#F7F7F7" stroke-width="5">
            <rect id="CARD" x="5.5" y="3.5" width="60" height="89" rx="8"></rect>
        </g>
        <g id="Card" transform="translate(334.000000, 154.000000)" fill="#353535" stroke="#F7F7F7" stroke-width="5">
            <rect id="CARD" x="5.5" y="3.5" width="60" height="89" rx="8"></rect>
        </g>
        <g id="Card" transform="translate(409.689863, 307.689863) rotate(-45.000000) translate(-409.689863, -307.689863) translate(374.689863, 259.689863)" fill="#353535" stroke="#F7F7F7" stroke-width="5">
            <rect id="CARD" x="5.5" y="3.5" width="60" height="89" rx="8"></rect>
        </g>
        <g id="Card" transform="translate(404.689863, 95.689863) rotate(45.000000) translate(-404.689863, -95.689863) translate(369.689863, 47.689863)" fill="#353535" stroke="#F7F7F7" stroke-width="5">
            <rect id="CARD" x="5.5" y="3.5" width="60" height="89" rx="8"></rect>
        </g>
        <g id="Card" transform="translate(457.000000, 202.000000) rotate(90.000000) translate(-457.000000, -202.000000) translate(422.000000, 154.000000)" fill="#353535" stroke="#F7F7F7" stroke-width="5">
            <rect id="CARD" x="5.5" y="3.5" width="60" height="89" rx="8"></rect>
        </g>
    </g>
</svg>